<?xml version="1.0" encoding="utf-8"?>
<!-- Generator: Adobe Illustrator 23.1.1, SVG Export Plug-In . SVG Version: 6.00 Build 0)  -->
<svg version="1.1" id="Layer_1" xmlns="http://www.w3.org/2000/svg" xmlns:xlink="http://www.w3.org/1999/xlink" x="0px" y="0px"
	 viewBox="0 0 210.81 73.43" style="enable-background:new 0 0 210.81 73.43;" xml:space="preserve">
<style type="text/css">
	.st0{fill:#8C6F56;}
</style>
<g>
	<path class="st0" d="M19.76,47.36c-5.88,0-7.35-4.27-5.25-10.36c2.31-6.79,8.4-14.07,7.28-14.7c-0.98-0.56-8.61,4.2-12.67,10.85
		c-2.52,4.13-5.11,9.03-6.79,13.3c-0.28,0.63-0.77,0.77-1.19,0.28c-1.12-1.26-1.75-3.22-0.28-7.42c2.45-7,17.01-31.64,22.68-38.71
		c0.63-0.84,1.33-0.77,1.68,0.07c0.91,2.03,0.7,5.53-1.96,9.94c-1.68,2.8-5.39,8.47-8.4,13.16c2.87-2.8,6.51-5.11,8.4-4.9
		c2.38,0.28,4.55,3.78,2.73,7.35c-1.54,3.08-4.9,8.19-6.51,11.83c-1.75,4.06-1.4,7.35,1.19,7.21c2.87-0.14,6.72-5.18,8.89-9.66
		c0.28-0.63,0.98-0.63,1.26-0.07c0.35,0.77,0.35,2.24-0.7,4.34C28.16,43.86,23.89,47.36,19.76,47.36z"/>
	<path class="st0" d="M53.78,19.22c0.63-0.91,1.19-1.05,1.68-0.42c1.05,1.26,1.61,4.27-0.07,7.77c-1.54,3.15-5.04,8.4-6.72,12.11
		c-1.75,3.92-1.82,6.93,0.56,6.79c2.87-0.14,6.72-4.9,9.17-9.73c0.35-0.63,0.84-0.7,1.12-0.07s0.28,2.38-0.63,4.34
		c-1.82,3.85-6.23,7.7-10.08,7.49c-3.78-0.21-5.74-2.45-5.74-5.74c-2.24,2.87-5.39,5.46-8.75,5.46c-6.51,0-7.84-8.89-2.03-17.36
		c5.67-8.26,11.2-11.41,14.7-11.41c3.01,0,4.41,2.31,4.27,5.04C52.17,21.81,53.01,20.34,53.78,19.22z M48.18,22.09
		c-2.24-0.21-7.35,4.34-11.2,10.57c-3.71,6.02-4.62,12.18-1.89,12.25c2.87,0.07,6.51-4.41,10.08-10.57
		C49.58,26.64,50.21,22.3,48.18,22.09z"/>
	<path class="st0" d="M78.98,18.73c2.38,0.07,3.64,3.78,2.73,6.86c3.36-3.29,8.05-6.58,10.36-6.51c2.52,0.07,3.08,4.2,1.68,7.7
		c-1.26,3.15-4.69,7.77-6.44,11.27c-1.96,3.99-0.98,7.21,1.54,7.14c2.87-0.07,6.02-4.69,8.75-9.59c0.35-0.63,0.91-0.63,1.26-0.14
		s0.14,2.8-0.63,4.41c-1.96,3.99-6.44,7.49-10.5,7.49c-6.09,0-8.33-4.83-5.74-10.57c2.59-5.81,8.82-13.65,7.77-14
		c-0.56-0.21-2.94,0.56-7.49,5.11c-5.81,5.81-9.24,12.53-12.18,19.11c-0.42,0.84-0.98,1.05-1.61,0.35
		c-1.19-1.05-2.17-3.78-0.14-8.82c2.31-5.81,9.87-15.47,8.47-15.96c-0.84-0.35-4.27,1.54-8.75,6.44
		c-4.13,4.48-7.49,10.99-10.29,17.57c-0.28,0.63-0.7,0.91-1.33,0.35c-1.54-1.33-1.89-3.64-0.7-7.21
		c1.47-4.41,6.58-14.28,10.99-20.86c0.49-0.77,1.05-0.7,1.47,0c1.19,1.96,0.98,4.69-0.07,7.49C71.21,22.79,76.46,18.66,78.98,18.73z
		"/>
	<path class="st0" d="M96.76,37.07c1.75-5.11,6.37-13.37,8.96-17.01c0.63-0.84,1.12-1.05,1.68-0.42c1.05,1.12,1.61,4.13-0.07,7.63
		c-1.47,3.08-4.41,7.84-5.88,11.34c-1.68,4.06-1.54,6.79,0.7,6.65c3.15-0.14,7-4.76,9.1-9.59c0.35-0.63,0.84-0.56,1.12,0
		c0.56,1.12,0.35,2.59-0.49,4.34c-2.1,4.34-6.51,7.28-10.43,7.28C96.13,47.29,94.8,42.81,96.76,37.07z M112.37,18.8
		c-0.91,0.98-2.87,0.77-3.92-1.05c-1.12-1.89-0.77-3.99,0.35-5.18c1.12-1.19,3.15-0.35,4.06,1.54
		C113.77,15.93,113.28,17.82,112.37,18.8z"/>
	<path class="st0" d="M132.11,18.8c2.31,0.35,4.48,3.78,2.73,7.42c-1.47,3.08-4.9,8.26-6.51,11.9c-1.82,4.06-1.4,7.35,1.12,7.21
		c2.87-0.14,6.3-4.76,8.96-9.66c0.35-0.63,0.84-0.63,1.19-0.07c0.49,0.77,0.35,2.38-0.63,4.41c-1.89,3.92-6.3,7.49-10.36,7.49
		c-5.95,0-7.35-4.34-5.32-10.43c2.31-6.86,8.47-14.28,7.21-14.84c-0.7-0.28-4.76,1.68-9.24,6.58c-4.13,4.48-7.21,11.2-10.22,17.78
		c-0.28,0.63-0.7,0.91-1.33,0.28c-1.4-1.4-1.82-3.71-0.7-7.21c1.4-4.41,6.79-14.14,11.2-20.65c0.49-0.77,1.05-0.7,1.47,0
		c1.05,1.75,0.98,4.13,0.21,6.65C125.04,22.3,129.8,18.45,132.11,18.8z"/>
	<path class="st0" d="M181.04,39.94c-2.73,4.83-7.91,7.28-14,9.73c-3.99,9.45-8.33,20.3-13.93,23.38c-1.4,0.77-3.08,0.35-4.2-1.33
		c-1.26-1.82-2.45-4.69-1.26-8.4c1.89-5.95,6.3-10.5,14.28-14c0.77-2.1,1.75-4.13,2.66-6.23c-3.01,2.38-6.86,4.13-11.06,5.67
		c-4.34,9.45-9.59,20.3-15.47,22.4c-1.47,0.49-2.73,0.35-3.92-1.54c-1.4-2.17-2.73-4.62-1.19-8.68c2.31-6.23,8.4-10.29,15.4-12.67
		c0.7-1.61,1.4-3.08,2.1-4.69c-1.96,2.03-4.41,3.57-7.07,3.57c-6.37,0-7.7-8.82-2.03-17.22c5.53-8.19,11.2-11.27,14.7-11.27
		c2.8,0,4.2,2.17,4.2,4.76c0.84-1.54,1.61-2.8,2.38-3.99c0.63-0.98,1.12-1.05,1.68-0.42c1.05,1.26,1.54,4.27-0.21,7.7
		c-2.1,4.2-6.16,12.67-9.24,19.25c6.23-3.08,10.29-6.58,13.09-10.43c3.15-6.44,6.16-12.25,8.33-15.47c0.7-0.98,1.05-1.05,1.68-0.42
		c1.05,1.12,1.33,4.2-0.21,7.7c-1.61,3.64-6.44,12.6-9.52,19.46c6.37-3.36,9.87-6.79,12.67-11.06c0.49-0.56,0.98-0.63,1.26,0.07
		C182.37,36.3,182.09,38.12,181.04,39.94z M135.61,67.24c0.98,1.33,6.58-5.74,11.55-16.17C137.85,55.97,134.35,65.49,135.61,67.24z
		 M157.24,22.23c-2.31-0.14-7.35,4.34-11.2,10.5c-3.71,5.95-4.55,12.11-1.75,12.18c2.66,0.07,6.3-4.34,9.87-10.5
		C158.64,26.71,159.13,22.37,157.24,22.23z M150.38,69.2c0.63,0.91,5.95-6.16,10.22-16.8C152.13,58,149.19,67.59,150.38,69.2z
		 M179.01,17.68c-1.12-1.82-0.77-3.99,0.35-5.11s3.15-0.49,3.99,1.54c0.77,1.89,0.49,3.57-0.42,4.62
		C182.09,19.71,179.99,19.29,179.01,17.68z"/>
	<path class="st0" d="M204.91,19.22c0.63-0.91,1.19-1.05,1.68-0.42c1.05,1.26,1.61,4.27-0.07,7.77c-1.54,3.15-5.04,8.4-6.72,12.11
		c-1.75,3.92-1.82,6.93,0.56,6.79c2.87-0.14,6.72-4.9,9.17-9.73c0.35-0.63,0.84-0.7,1.12-0.07s0.28,2.38-0.63,4.34
		c-1.82,3.85-6.23,7.7-10.08,7.49c-3.78-0.21-5.74-2.45-5.74-5.74c-2.24,2.87-5.39,5.46-8.75,5.46c-6.51,0-7.84-8.89-2.03-17.36
		c5.67-8.26,11.2-11.41,14.7-11.41c3.01,0,4.41,2.31,4.27,5.04C203.3,21.81,204.14,20.34,204.91,19.22z M199.31,22.09
		c-2.24-0.21-7.35,4.34-11.2,10.57c-3.71,6.02-4.62,12.18-1.89,12.25c2.87,0.07,6.51-4.41,10.08-10.57
		C200.71,26.64,201.34,22.3,199.31,22.09z"/>
</g>
</svg>
