<?xml version="1.0" encoding="utf-8"?>
<!-- Generator: Adobe Illustrator 23.1.1, SVG Export Plug-In . SVG Version: 6.00 Build 0)  -->
<svg version="1.1" id="Layer_1" xmlns="http://www.w3.org/2000/svg" xmlns:xlink="http://www.w3.org/1999/xlink" x="0px" y="0px"
	 viewBox="0 0 210.8 73.5" style="enable-background:new 0 0 210.8 73.5;" xml:space="preserve">
<style type="text/css">
	.st0{fill:#FFFFFF;}
</style>
<g>
	<path class="st0" d="M19.8,47.4c-5.9,0-7.4-4.3-5.2-10.4c2.3-6.8,8.4-14.1,7.3-14.7c-1-0.6-8.6,4.2-12.7,10.9
		c-2.5,4.1-5.1,9-6.8,13.3c-0.3,0.6-0.8,0.8-1.2,0.3c-1.1-1.3-1.8-3.2-0.3-7.4c2.5-7,17-31.6,22.7-38.7c0.6-0.8,1.3-0.8,1.7,0.1
		c0.9,2,0.7,5.5-2,9.9c-1.7,2.8-5.4,8.5-8.4,13.2c2.9-2.8,6.5-5.1,8.4-4.9c2.4,0.3,4.5,3.8,2.7,7.4c-1.5,3.1-4.9,8.2-6.5,11.8
		c-1.8,4.1-1.4,7.3,1.2,7.2c2.9-0.1,6.7-5.2,8.9-9.7c0.3-0.6,1-0.6,1.3-0.1c0.4,0.8,0.4,2.2-0.7,4.3C28.2,43.9,23.9,47.4,19.8,47.4z
		"/>
	<path class="st0" d="M53.8,19.2c0.6-0.9,1.2-1,1.7-0.4c1,1.3,1.6,4.3-0.1,7.8c-1.5,3.1-5,8.4-6.7,12.1c-1.8,3.9-1.8,6.9,0.6,6.8
		c2.9-0.1,6.7-4.9,9.2-9.7c0.3-0.6,0.8-0.7,1.1-0.1s0.3,2.4-0.6,4.3c-1.8,3.8-6.2,7.7-10.1,7.5c-3.8-0.2-5.7-2.5-5.7-5.7
		c-2.2,2.9-5.4,5.5-8.8,5.5c-6.5,0-7.8-8.9-2-17.4C38,21.6,43.5,18.4,47,18.4c3,0,4.4,2.3,4.3,5C52.2,21.8,53,20.3,53.8,19.2z
		 M48.2,22.1c-2.2-0.2-7.3,4.3-11.2,10.6c-3.7,6-4.6,12.2-1.9,12.2c2.9,0.1,6.5-4.4,10.1-10.6C49.6,26.6,50.2,22.3,48.2,22.1z"/>
	<path class="st0" d="M79,18.7c2.4,0.1,3.6,3.8,2.7,6.9c3.4-3.3,8.1-6.6,10.4-6.5c2.5,0.1,3.1,4.2,1.7,7.7
		c-1.3,3.1-4.7,7.8-6.4,11.3c-2,4-1,7.2,1.5,7.1c2.9-0.1,6-4.7,8.8-9.6c0.3-0.6,0.9-0.6,1.3-0.1s0.1,2.8-0.6,4.4
		c-2,4-6.4,7.5-10.5,7.5c-6.1,0-8.3-4.8-5.7-10.6c2.6-5.8,8.8-13.6,7.8-14c-0.6-0.2-2.9,0.6-7.5,5.1C76.5,33.7,73,40.4,70.1,47
		c-0.4,0.8-1,1-1.6,0.3c-1.2-1-2.2-3.8-0.1-8.8c2.3-5.8,9.9-15.5,8.5-16c-0.8-0.4-4.3,1.5-8.8,6.4c-4.1,4.5-7.5,11-10.3,17.6
		c-0.3,0.6-0.7,0.9-1.3,0.3c-1.5-1.3-1.9-3.6-0.7-7.2c1.5-4.4,6.6-14.3,11-20.9c0.5-0.8,1.1-0.7,1.5,0c1.2,2,1,4.7-0.1,7.5
		C71.2,22.8,76.5,18.7,79,18.7z"/>
	<path class="st0" d="M96.8,37.1c1.8-5.1,6.4-13.4,9-17c0.6-0.8,1.1-1,1.7-0.4c1.1,1.1,1.6,4.1-0.1,7.6c-1.5,3.1-4.4,7.8-5.9,11.3
		c-1.7,4.1-1.5,6.8,0.7,6.7c3.2-0.1,7-4.8,9.1-9.6c0.3-0.6,0.8-0.6,1.1,0c0.6,1.1,0.3,2.6-0.5,4.3c-2.1,4.3-6.5,7.3-10.4,7.3
		C96.1,47.3,94.8,42.8,96.8,37.1z M112.4,18.8c-0.9,1-2.9,0.8-3.9-1c-1.1-1.9-0.8-4,0.3-5.2c1.1-1.2,3.2-0.4,4.1,1.5
		C113.8,15.9,113.3,17.8,112.4,18.8z"/>
	<path class="st0" d="M132.1,18.8c2.3,0.4,4.5,3.8,2.7,7.4c-1.5,3.1-4.9,8.3-6.5,11.9c-1.8,4.1-1.4,7.3,1.1,7.2
		c2.9-0.1,6.3-4.8,9-9.7c0.4-0.6,0.8-0.6,1.2-0.1c0.5,0.8,0.4,2.4-0.6,4.4c-1.9,3.9-6.3,7.5-10.4,7.5c-5.9,0-7.3-4.3-5.3-10.4
		c2.3-6.9,8.5-14.3,7.2-14.8c-0.7-0.3-4.8,1.7-9.2,6.6c-4.1,4.5-7.2,11.2-10.2,17.8c-0.3,0.6-0.7,0.9-1.3,0.3
		c-1.4-1.4-1.8-3.7-0.7-7.2c1.4-4.4,6.8-14.1,11.2-20.6c0.5-0.8,1.1-0.7,1.5,0c1.1,1.8,1,4.1,0.2,6.6
		C125,22.3,129.8,18.4,132.1,18.8z"/>
	<path class="st0" d="M181,39.9c-2.7,4.8-7.9,7.3-14,9.7c-4,9.5-8.3,20.3-13.9,23.4c-1.4,0.8-3.1,0.3-4.2-1.3
		c-1.3-1.8-2.4-4.7-1.3-8.4c1.9-6,6.3-10.5,14.3-14c0.8-2.1,1.8-4.1,2.7-6.2c-3,2.4-6.9,4.1-11.1,5.7c-4.3,9.5-9.6,20.3-15.5,22.4
		c-1.5,0.5-2.7,0.3-3.9-1.5c-1.4-2.2-2.7-4.6-1.2-8.7c2.3-6.2,8.4-10.3,15.4-12.7c0.7-1.6,1.4-3.1,2.1-4.7c-2,2-4.4,3.6-7.1,3.6
		c-6.4,0-7.7-8.8-2-17.2c5.5-8.2,11.2-11.3,14.7-11.3c2.8,0,4.2,2.2,4.2,4.8c0.8-1.5,1.6-2.8,2.4-4c0.6-1,1.1-1,1.7-0.4
		c1.1,1.3,1.5,4.3-0.2,7.7c-2.1,4.2-6.2,12.7-9.2,19.2c6.2-3.1,10.3-6.6,13.1-10.4c3.1-6.4,6.2-12.2,8.3-15.5c0.7-1,1.1-1,1.7-0.4
		c1.1,1.1,1.3,4.2-0.2,7.7c-1.6,3.6-6.4,12.6-9.5,19.5c6.4-3.4,9.9-6.8,12.7-11.1c0.5-0.6,1-0.6,1.3,0.1
		C182.4,36.3,182.1,38.1,181,39.9z M135.6,67.2c1,1.3,6.6-5.7,11.6-16.2C137.9,56,134.4,65.5,135.6,67.2z M157.2,22.2
		c-2.3-0.1-7.4,4.3-11.2,10.5c-3.7,6-4.6,12.1-1.8,12.2c2.7,0.1,6.3-4.3,9.9-10.5C158.6,26.7,159.1,22.4,157.2,22.2z M150.4,69.2
		c0.6,0.9,5.9-6.2,10.2-16.8C152.1,58,149.2,67.6,150.4,69.2z M179,17.7c-1.1-1.8-0.8-4,0.4-5.1s3.1-0.5,4,1.5
		c0.8,1.9,0.5,3.6-0.4,4.6C182.1,19.7,180,19.3,179,17.7z"/>
	<path class="st0" d="M204.9,19.2c0.6-0.9,1.2-1,1.7-0.4c1.1,1.3,1.6,4.3-0.1,7.8c-1.5,3.1-5,8.4-6.7,12.1c-1.8,3.9-1.8,6.9,0.6,6.8
		c2.9-0.1,6.7-4.9,9.2-9.7c0.4-0.6,0.8-0.7,1.1-0.1s0.3,2.4-0.6,4.3c-1.8,3.8-6.2,7.7-10.1,7.5c-3.8-0.2-5.7-2.5-5.7-5.7
		c-2.2,2.9-5.4,5.5-8.8,5.5c-6.5,0-7.8-8.9-2-17.4c5.7-8.3,11.2-11.4,14.7-11.4c3,0,4.4,2.3,4.3,5C203.3,21.8,204.1,20.3,204.9,19.2
		z M199.3,22.1c-2.2-0.2-7.4,4.3-11.2,10.6c-3.7,6-4.6,12.2-1.9,12.2c2.9,0.1,6.5-4.4,10.1-10.6C200.7,26.6,201.3,22.3,199.3,22.1z"
		/>
</g>
<g>
	<path class="st0" d="M3.5,63.8v5.5H1.6V55.2h5.2c1.5,0,2.8,0.4,3.6,1.2c0.9,0.8,1.3,1.8,1.3,3.1c0,1.4-0.4,2.4-1.3,3.2
		c-0.9,0.7-2.1,1.1-3.7,1.1H3.5z M3.5,62.2h3.3c1,0,1.8-0.2,2.3-0.7s0.8-1.1,0.8-2c0-0.8-0.3-1.5-0.8-2c-0.5-0.5-1.3-0.8-2.2-0.8
		H3.5V62.2z"/>
	<path class="st0" d="M18.9,60.4c-0.3,0-0.6-0.1-0.9-0.1c-1.2,0-2,0.5-2.4,1.5v7.4h-1.8V58.8h1.7l0,1.2c0.6-0.9,1.4-1.4,2.5-1.4
		c0.3,0,0.6,0,0.8,0.1V60.4z"/>
	<path class="st0" d="M19.9,63.9c0-1,0.2-2,0.6-2.8c0.4-0.8,1-1.5,1.7-1.9c0.7-0.4,1.5-0.7,2.5-0.7c1.4,0,2.6,0.5,3.5,1.5
		c0.9,1,1.3,2.3,1.3,3.9v0.1c0,1-0.2,1.9-0.6,2.7s-0.9,1.4-1.7,1.9c-0.7,0.5-1.6,0.7-2.5,0.7c-1.4,0-2.6-0.5-3.5-1.5
		c-0.9-1-1.3-2.3-1.3-3.9V63.9z M21.7,64.2c0,1.2,0.3,2.1,0.8,2.8c0.5,0.7,1.3,1.1,2.2,1.1c0.9,0,1.6-0.4,2.2-1.1
		c0.5-0.7,0.8-1.7,0.8-3c0-1.1-0.3-2.1-0.8-2.8s-1.3-1.1-2.2-1.1c-0.9,0-1.6,0.4-2.1,1.1C22,61.8,21.7,62.8,21.7,64.2z"/>
	<path class="st0" d="M33.5,58.8v11.7c0,2-0.9,3-2.7,3c-0.4,0-0.8-0.1-1.1-0.2v-1.4c0.2,0.1,0.5,0.1,0.8,0.1c0.4,0,0.7-0.1,0.9-0.3
		c0.2-0.2,0.3-0.6,0.3-1.1V58.8H33.5z M31.6,56c0-0.3,0.1-0.5,0.3-0.7c0.2-0.2,0.4-0.3,0.8-0.3c0.3,0,0.6,0.1,0.8,0.3
		c0.2,0.2,0.3,0.4,0.3,0.7c0,0.3-0.1,0.5-0.3,0.7C33.2,56.9,33,57,32.6,57s-0.6-0.1-0.8-0.3C31.7,56.6,31.6,56.3,31.6,56z"/>
	<path class="st0" d="M40.8,69.5c-1.4,0-2.6-0.5-3.5-1.4c-0.9-0.9-1.3-2.2-1.3-3.7V64c0-1,0.2-2,0.6-2.8c0.4-0.8,1-1.5,1.7-1.9
		s1.5-0.7,2.3-0.7c1.4,0,2.4,0.4,3.2,1.3c0.8,0.9,1.1,2.2,1.1,3.9v0.7h-7.1c0,1,0.3,1.9,0.9,2.5c0.6,0.6,1.3,1,2.2,1
		c0.6,0,1.2-0.1,1.6-0.4c0.4-0.3,0.8-0.6,1.2-1l1.1,0.9C43.8,68.8,42.5,69.5,40.8,69.5z M40.6,60.1c-0.7,0-1.3,0.3-1.8,0.8
		c-0.5,0.5-0.8,1.3-0.9,2.2h5.2v-0.1c-0.1-0.9-0.3-1.6-0.7-2.1C41.9,60.3,41.3,60.1,40.6,60.1z"/>
	<path class="st0" d="M51.1,68c0.6,0,1.2-0.2,1.7-0.6c0.5-0.4,0.7-0.9,0.8-1.5h1.7c0,0.6-0.2,1.2-0.6,1.7c-0.4,0.5-0.9,1-1.5,1.3
		c-0.6,0.3-1.3,0.5-2,0.5c-1.4,0-2.6-0.5-3.4-1.4c-0.8-1-1.3-2.3-1.3-3.9v-0.3c0-1,0.2-1.9,0.6-2.7c0.4-0.8,0.9-1.4,1.6-1.8
		c0.7-0.4,1.5-0.7,2.5-0.7c1.2,0,2.2,0.4,2.9,1.1c0.8,0.7,1.2,1.6,1.2,2.7h-1.7c-0.1-0.7-0.3-1.2-0.8-1.7c-0.5-0.4-1-0.7-1.7-0.7
		c-0.9,0-1.6,0.3-2.1,1c-0.5,0.7-0.8,1.6-0.8,2.8v0.3c0,1.2,0.2,2.1,0.7,2.8S50.2,68,51.1,68z"/>
	<path class="st0" d="M59.7,56.3v2.5h2v1.4h-2v6.5c0,0.4,0.1,0.7,0.3,0.9s0.5,0.3,0.9,0.3c0.2,0,0.5,0,0.9-0.1v1.4
		c-0.5,0.1-0.9,0.2-1.4,0.2c-0.8,0-1.4-0.2-1.8-0.7S58,67.6,58,66.7v-6.5H56v-1.4H58v-2.5H59.7z"/>
	<path class="st0" d="M71,69.3h-1.9V55.2H71V69.3z"/>
	<path class="st0" d="M73.7,63.9c0-1.6,0.4-2.9,1.1-3.9c0.8-1,1.8-1.4,3-1.4c1.3,0,2.3,0.5,3,1.4l0.1-1.2h1.6V69
		c0,1.4-0.4,2.4-1.2,3.2c-0.8,0.8-1.9,1.2-3.2,1.2c-0.8,0-1.5-0.2-2.2-0.5c-0.7-0.3-1.3-0.8-1.7-1.3l0.9-1.1
		c0.8,0.9,1.7,1.4,2.8,1.4c0.9,0,1.6-0.2,2-0.7c0.5-0.5,0.7-1.2,0.7-2.1v-0.9c-0.7,0.8-1.7,1.2-2.9,1.2c-1.2,0-2.2-0.5-3-1.5
		C74.1,67,73.7,65.7,73.7,63.9z M75.5,64.2c0,1.2,0.2,2.1,0.7,2.8c0.5,0.7,1.2,1,2,1c1.1,0,2-0.5,2.5-1.5v-4.8
		c-0.5-1-1.4-1.5-2.5-1.5c-0.9,0-1.6,0.3-2,1C75.7,61.8,75.5,62.8,75.5,64.2z"/>
	<path class="st0" d="M86.9,58.8l0.1,1.3c0.8-1,1.8-1.5,3.1-1.5c2.2,0,3.3,1.2,3.4,3.7v6.9h-1.8v-6.9c0-0.8-0.2-1.3-0.5-1.7
		s-0.9-0.5-1.6-0.5c-0.6,0-1.1,0.2-1.5,0.5c-0.4,0.3-0.8,0.7-1,1.2v7.5h-1.8V58.8H86.9z"/>
	<path class="st0" d="M96.2,56c0-0.3,0.1-0.5,0.3-0.7c0.2-0.2,0.4-0.3,0.8-0.3s0.6,0.1,0.8,0.3s0.3,0.4,0.3,0.7
		c0,0.3-0.1,0.5-0.3,0.7c-0.2,0.2-0.4,0.3-0.8,0.3s-0.6-0.1-0.8-0.3C96.3,56.6,96.2,56.3,96.2,56z M98.1,69.3h-1.8V58.8h1.8V69.3z"
		/>
	<path class="st0" d="M103.4,56.3v2.5h2v1.4h-2v6.5c0,0.4,0.1,0.7,0.3,0.9c0.2,0.2,0.5,0.3,0.9,0.3c0.2,0,0.5,0,0.9-0.1v1.4
		c-0.5,0.1-0.9,0.2-1.4,0.2c-0.8,0-1.4-0.2-1.8-0.7c-0.4-0.5-0.6-1.2-0.6-2.1v-6.5h-1.9v-1.4h1.9v-2.5H103.4z"/>
	<path class="st0" d="M111.8,69.5c-1.4,0-2.6-0.5-3.5-1.4c-0.9-0.9-1.3-2.2-1.3-3.7V64c0-1,0.2-2,0.6-2.8c0.4-0.8,1-1.5,1.7-1.9
		c0.7-0.5,1.5-0.7,2.3-0.7c1.4,0,2.4,0.4,3.2,1.3c0.8,0.9,1.1,2.2,1.1,3.9v0.7h-7.1c0,1,0.3,1.9,0.9,2.5c0.6,0.6,1.3,1,2.2,1
		c0.6,0,1.2-0.1,1.6-0.4c0.4-0.3,0.8-0.6,1.2-1l1.1,0.9C114.9,68.8,113.6,69.5,111.8,69.5z M111.6,60.1c-0.7,0-1.3,0.3-1.8,0.8
		c-0.5,0.5-0.8,1.3-0.9,2.2h5.2v-0.1c-0.1-0.9-0.3-1.6-0.7-2.1C112.9,60.3,112.3,60.1,111.6,60.1z"/>
</g>
</svg>
